<svg width="100" height="100" viewBox="0 0 100 100" fill="none" xmlns="http://www.w3.org/2000/svg">
<path d="M58.3333 76.3333C53.7888 74.1368 49.8859 70.8079 47 66.6667H12.5V16.6667H87.5V26.0833C90.8717 28.4561 93.7101 31.5075 95.8333 35.0417V16.6667C95.8333 14.4565 94.9553 12.3369 93.3925 10.7741C91.8297 9.21132 89.7101 8.33334 87.5 8.33334H12.5C10.2899 8.33334 8.17024 9.21132 6.60743 10.7741C5.04463 12.3369 4.16666 14.4565 4.16666 16.6667V66.6667C4.16666 68.8768 5.04463 70.9964 6.60743 72.5592C8.17024 74.122 10.2899 75 12.5 75H41.6667V83.3333H33.3333V91.6667H66.6667V83.3333H58.3333V76.3333Z" fill="#778DA9"/>
<path d="M70.8333 25C65.8888 25 61.0553 26.4662 56.9441 29.2133C52.8328 31.9603 49.6285 35.8648 47.7363 40.4329C45.8441 45.0011 45.3491 50.0277 46.3137 54.8773C47.2783 59.7268 49.6593 64.1814 53.1557 67.6777C56.652 71.174 61.1065 73.555 65.9561 74.5196C70.8056 75.4843 75.8323 74.9892 80.4004 73.097C84.9686 71.2048 88.873 68.0005 91.6201 63.8893C94.3671 59.778 95.8333 54.9445 95.8333 50C95.8333 43.3696 93.1994 37.0107 88.511 32.3223C83.8226 27.6339 77.4637 25 70.8333 25ZM70.8333 56.25C69.5972 56.25 68.3888 55.8834 67.361 55.1967C66.3332 54.5099 65.5321 53.5338 65.0591 52.3918C64.586 51.2497 64.4623 49.9931 64.7034 48.7807C64.9446 47.5683 65.5398 46.4547 66.4139 45.5806C67.288 44.7065 68.4016 44.1112 69.614 43.8701C70.8264 43.6289 72.0831 43.7527 73.2251 44.2258C74.3671 44.6988 75.3432 45.4999 76.03 46.5277C76.7168 47.5555 77.0833 48.7639 77.0833 50C77.0833 51.6576 76.4248 53.2473 75.2527 54.4194C74.0806 55.5915 72.4909 56.25 70.8333 56.25Z" fill="#778DA9"/>
</svg>
