<svg width="77" height="88" viewBox="0 0 77 88" fill="none" xmlns="http://www.w3.org/2000/svg">
<path d="M77.008 12.5074C77.0093 10.3159 76.4189 8.16257 75.2961 6.26334C74.1733 4.36412 72.5575 2.78577 70.6108 1.68656C68.6641 0.587347 66.4549 0.00590835 64.2046 0.000544831C61.9544 -0.00481869 59.7423 0.566082 57.7901 1.656C55.8378 2.74592 54.2142 4.31655 53.0818 6.2104C51.9495 8.10424 51.3483 10.2547 51.3385 12.4463C51.3288 14.6378 51.9108 16.7933 53.0262 18.6966C54.1416 20.6 55.7512 22.1843 57.6936 23.2906C57.3347 27.3668 55.3934 30.732 51.9039 33.3082C48.3443 35.9449 43.3347 37.5074 38.5036 37.5074C33.6725 37.5074 28.6629 35.9449 25.1032 33.3082C21.6138 30.732 19.6725 27.3668 19.3135 23.2906C21.7516 21.9022 23.6514 19.7693 24.7184 17.2226C25.7854 14.6758 25.9601 11.8574 25.2155 9.20416C24.4708 6.55088 22.8483 4.21091 20.5995 2.54688C18.3506 0.882845 15.601 -0.0123142 12.7768 0.000127971C9.95251 0.0125702 7.21132 0.93192 4.97804 2.6157C2.74475 4.29947 1.14407 6.65365 0.424073 9.31338C-0.295922 11.9731 -0.0950268 14.7899 0.995622 17.3271C2.08627 19.8643 4.00577 21.9804 6.45664 23.3473C6.87377 31.3297 10.7022 38.361 17.3482 43.2692C21.5175 46.3473 26.6715 48.482 32.0862 49.4391V64.1891C29.6393 65.5649 27.727 67.6886 26.6458 70.2309C25.5645 72.7731 25.3748 75.5917 26.1061 78.2496C26.8374 80.9075 28.4487 83.2562 30.6902 84.9313C32.9318 86.6064 35.6782 87.5144 38.5036 87.5144C41.329 87.5144 44.0754 86.6064 46.3169 84.9313C48.5585 83.2562 50.1698 80.9075 50.9011 78.2496C51.6323 75.5917 51.4426 72.7731 50.3614 70.2309C49.2802 67.6886 47.3678 65.5649 44.921 64.1891V49.4391C50.3357 48.482 55.4897 46.3473 59.659 43.2692C66.305 38.361 70.1334 31.3297 70.5505 23.3473C72.5113 22.2539 74.141 20.6758 75.2749 18.7724C76.4087 16.8691 77.0066 14.7079 77.008 12.5074ZM12.8339 6.25744C14.1032 6.25744 15.3439 6.62399 16.3993 7.31075C17.4546 7.99751 18.2771 8.97363 18.7629 10.1157C19.2486 11.2577 19.3757 12.5144 19.128 13.7268C18.8804 14.9391 18.2692 16.0528 17.3717 16.9269C16.4742 17.8009 15.3308 18.3962 14.0859 18.6373C12.8411 18.8785 11.5507 18.7547 10.3781 18.2817C9.20547 17.8086 8.20321 17.0076 7.49806 15.9798C6.7929 14.9519 6.41653 13.7436 6.41653 12.5074C6.41653 10.8498 7.09265 9.26012 8.29614 8.08802C9.49964 6.91592 11.1319 6.25744 12.8339 6.25744ZM38.5036 81.2574C37.2343 81.2574 35.9936 80.8909 34.9383 80.2041C33.8829 79.5174 33.0604 78.5413 32.5747 77.3992C32.0889 76.2572 31.9619 75.0005 32.2095 73.7881C32.4571 72.5757 33.0683 71.4621 33.9658 70.588C34.8633 69.7139 36.0068 69.1187 37.2516 68.8775C38.4965 68.6364 39.7868 68.7601 40.9594 69.2332C42.132 69.7062 43.1343 70.5073 43.8395 71.5351C44.5446 72.5629 44.921 73.7713 44.921 75.0074C44.921 76.665 44.2449 78.2548 43.0414 79.4269C41.8379 80.599 40.2056 81.2574 38.5036 81.2574ZM64.1732 18.7574C62.904 18.7574 61.6632 18.3909 60.6079 17.7041C59.5526 17.0174 58.73 16.0412 58.2443 14.8992C57.7586 13.7572 57.6315 12.5005 57.8791 11.2881C58.1267 10.0757 58.7379 8.9621 59.6354 8.08802C60.5329 7.21394 61.6764 6.61869 62.9213 6.37753C64.1661 6.13637 65.4564 6.26014 66.6291 6.73319C67.8017 7.20624 68.804 8.00732 69.5091 9.03512C70.2143 10.0629 70.5906 11.2713 70.5906 12.5074C70.5906 14.165 69.9145 15.7548 68.711 16.9269C67.5075 18.099 65.8752 18.7574 64.1732 18.7574Z" fill="#778DA9"/>
</svg>
